<?xml version="1.0" standalone="no"?>
<!DOCTYPE svg PUBLIC "-//W3C//DTD SVG 20010904//EN"
 "http://www.w3.org/TR/2001/REC-SVG-20010904/DTD/svg10.dtd">
<svg version="1.0" xmlns="http://www.w3.org/2000/svg"
 width="607.000000pt" height="411.000000pt" viewBox="0 0 607.000000 411.000000"
 preserveAspectRatio="xMidYMid meet">

<g transform="translate(0.000000,411.000000) scale(0.100000,-0.100000)"
fill="#000000" stroke="none">
<path d="M449 4029 c-102 -13 -136 -31 -149 -80 -15 -55 -10 -73 22 -77 20 -2
26 1 24 15 0 10 -10 26 -21 35 -19 17 -19 17 10 4 41 -20 86 -30 84 -20 -5 32
2 40 31 36 25 -4 28 -7 18 -19 -9 -11 -9 -16 2 -23 10 -6 7 -9 -11 -12 -13 -1
-24 -7 -24 -12 0 -18 60 -26 140 -20 l80 6 3 43 c1 33 -1 43 -13 41 -20 -3
-32 -16 -14 -16 19 -1 -52 -39 -73 -40 -10 0 -18 5 -18 10 0 6 6 10 13 10 7 0
8 3 2 8 -5 4 -11 24 -13 45 -3 35 -2 37 27 37 26 0 50 15 40 24 -11 9 -103 12
-160 5z"/>
<path d="M5572 4033 c-43 -5 -37 -26 9 -33 19 -3 34 -11 35 -17 1 -7 2 -17 3
-23 0 -5 17 -12 36 -16 30 -5 35 -10 29 -26 -6 -19 -3 -20 47 -16 30 3 61 8
69 12 11 5 16 1 16 -14 0 -14 -5 -19 -16 -15 -11 5 -12 3 -4 -5 7 -7 22 -10
35 -8 21 3 24 8 23 50 0 25 -6 53 -13 62 -26 31 -181 59 -269 49z"/>
<path d="M5975 4000 c3 -5 8 -10 11 -10 2 0 4 5 4 10 0 6 -5 10 -11 10 -5 0
-7 -4 -4 -10z"/>
<path d="M725 3989 c-4 -5 0 -18 9 -28 9 -10 13 -21 9 -24 -3 -4 -1 -7 6 -7
17 0 3 -20 -23 -31 -17 -8 -16 -8 9 -4 39 8 75 32 75 50 0 16 -46 55 -66 55
-7 0 -16 -5 -19 -11z m25 -9 c0 -5 -4 -10 -10 -10 -5 0 -10 5 -10 10 0 6 5 10
10 10 6 0 10 -4 10 -10z"/>
<path d="M5367 3974 c-22 -21 -24 -29 -14 -44 6 -11 21 -21 33 -24 12 -3 30
-8 41 -12 10 -3 5 3 -12 12 -26 15 -27 19 -11 22 15 3 16 6 5 13 -12 8 -12 11
1 19 12 8 12 10 1 10 -11 0 -11 3 -1 15 22 27 -15 18 -43 -11z"/>
<path d="M5956 3945 c4 -8 10 -12 15 -9 11 6 2 24 -11 24 -5 0 -7 -7 -4 -15z"/>
<path d="M5500 3903 l0 -43 53 -2 c135 -5 171 -3 162 12 -3 5 1 11 7 13 7 3
-20 6 -60 6 -78 1 -147 24 -138 46 2 6 -2 12 -10 12 -10 0 -14 -13 -14 -44z"/>
<path d="M5617 3923 c-10 -9 -9 -23 2 -23 5 0 11 7 15 15 5 15 -5 20 -17 8z"/>
<path d="M5925 3920 c-3 -6 1 -7 9 -4 18 7 21 14 7 14 -6 0 -13 -4 -16 -10z"/>
<path d="M1818 3892 c-29 -16 -68 -32 -86 -35 -49 -10 -119 -66 -144 -117 -44
-88 -23 -206 49 -271 56 -52 74 -59 148 -59 68 0 126 21 147 53 3 6 20 -5 38
-26 44 -50 90 -64 138 -42 20 10 49 32 64 49 25 29 27 29 28 9 1 -55 70 -68
127 -23 25 20 27 20 37 3 21 -39 47 -37 83 6 l21 26 -5 -26 c-3 -18 0 -28 11
-32 25 -10 40 0 80 53 21 28 41 50 45 50 3 0 19 -14 36 -31 25 -26 28 -33 17
-49 -8 -13 -8 -20 -2 -20 21 0 69 30 84 52 15 22 16 21 13 -17 -3 -59 24 -59
79 0 42 46 43 46 33 16 -13 -37 -6 -61 17 -61 16 0 64 44 99 91 11 15 30 30
42 34 l23 6 -20 -43 c-25 -55 -25 -75 1 -83 16 -5 30 2 60 31 l39 38 0 -27 c0
-33 31 -51 75 -43 33 7 125 92 125 117 0 7 -13 -6 -29 -28 -38 -52 -98 -90
-120 -76 -25 16 -25 40 1 48 46 15 78 45 78 75 0 19 -6 29 -19 33 -25 6 -79
-21 -93 -47 -20 -39 -80 -106 -94 -106 -19 0 -18 11 11 76 14 31 25 58 25 61
0 2 -16 1 -35 -3 -23 -4 -35 -2 -35 5 0 23 -18 10 -23 -17 -6 -32 -91 -131
-102 -120 -4 4 2 35 14 69 24 71 25 79 11 79 -5 0 -25 -24 -43 -52 -38 -59
-83 -105 -93 -95 -4 4 3 33 15 65 25 70 26 82 6 82 -8 0 -15 -6 -15 -14 0 -7
-17 -36 -37 -64 -41 -55 -69 -76 -58 -43 4 13 -4 28 -25 49 -38 38 -39 62 -4
62 20 0 25 -4 20 -16 -4 -10 -1 -14 6 -12 7 3 14 12 16 21 3 14 -5 17 -37 17
-38 0 -43 -3 -79 -57 -44 -64 -79 -100 -88 -90 -4 4 1 33 10 65 22 80 22 82
-24 82 -30 0 -48 -7 -75 -31 -19 -17 -35 -37 -35 -43 0 -15 -46 -59 -77 -75
-17 -8 -29 -9 -43 -1 -30 16 -24 37 14 50 70 23 92 92 31 97 -37 3 -48 -5
-109 -85 -26 -35 -53 -61 -59 -59 -16 5 -9 43 14 89 25 49 25 50 -16 42 -26
-4 -35 -3 -35 7 0 10 -3 10 -11 2 -18 -18 -3 -46 21 -38 25 8 25 8 0 -40 -11
-22 -20 -50 -20 -62 0 -46 -90 -18 -120 37 -7 14 -4 31 14 67 14 27 32 82 41
123 31 142 48 170 107 170 48 0 97 20 123 50 l20 24 -25 -17 c-36 -25 -102
-21 -214 13 -122 37 -140 37 -208 2z m166 -26 c28 -13 59 -26 69 -29 17 -6 15
-11 -17 -49 -20 -23 -36 -47 -36 -54 0 -7 -5 -16 -11 -20 -8 -5 -10 1 -7 20 6
32 -7 35 -16 4 -7 -22 -7 -22 -16 -3 -5 11 -9 14 -9 8 -1 -7 -11 -13 -23 -14
l-23 0 23 -9 c27 -12 28 -24 1 -51 -25 -25 -43 -21 -47 11 -3 16 -6 19 -12 11
-16 -27 1 -50 39 -53 l36 -3 -37 -40 -36 -40 -22 28 c-18 22 -29 27 -63 25
l-42 -1 37 -4 c37 -4 54 -16 60 -43 2 -10 -9 -17 -37 -21 l-40 -6 38 -2 c40
-1 44 -6 25 -31 -7 -9 -3 -5 10 9 13 13 39 34 58 47 l34 23 0 -35 c0 -27 -9
-44 -39 -76 -35 -38 -43 -42 -97 -46 -53 -4 -62 -1 -88 22 -23 23 -27 33 -24
66 4 46 -7 40 -19 -10 l-9 -35 -29 49 c-51 86 -43 198 18 265 49 53 137 93
123 55 -25 -65 -17 -120 23 -163 18 -19 38 -31 53 -30 20 1 20 2 3 6 -33 8
-74 54 -81 91 -11 56 10 103 58 135 49 32 84 31 172 -7z m-4 -183 c0 -10 -9
-36 -20 -58 -11 -22 -18 -31 -16 -20 2 11 7 37 11 58 6 37 25 52 25 20z m330
-139 c0 -18 -53 -74 -70 -74 -13 0 -5 33 16 68 17 25 54 30 54 6z m175 -21
c-18 -44 -62 -103 -76 -103 -17 0 -22 29 -9 60 17 42 55 80 80 80 20 0 20 -1
5 -37z m742 20 c3 -7 -9 -26 -25 -43 -51 -50 -69 -34 -32 28 20 33 49 40 57
15z"/>
<path d="M1826 3851 c40 -10 72 -33 95 -68 11 -15 19 -24 19 -20 0 18 -43 68
-70 82 -16 8 -39 15 -52 14 -18 -1 -16 -3 8 -8z"/>
<path d="M1681 3655 c-1 -48 15 -82 49 -103 23 -15 23 -13 -5 16 -20 22 -31
47 -36 80 l-6 47 -2 -40z"/>
<path d="M1725 3517 c-9 -20 10 -47 33 -47 14 0 14 1 0 13 -9 6 -18 21 -21 32
-4 18 -5 19 -12 2z"/>
<path d="M3765 3909 c-17 -5 -40 -17 -52 -28 -11 -11 -36 -23 -54 -26 -45 -8
-108 -52 -136 -94 -44 -66 -52 -155 -20 -230 19 -44 104 -121 135 -121 26 0
26 0 -8 18 -46 23 -65 62 -51 105 9 24 9 29 0 20 -7 -7 -15 -29 -18 -50 l-6
-38 -25 40 c-21 34 -25 52 -25 122 0 75 2 84 31 124 30 41 116 100 128 88 3
-3 1 -21 -4 -39 -14 -47 3 -103 41 -134 24 -20 42 -26 79 -26 33 0 50 5 54 15
7 18 2 19 -24 3 -17 -11 -22 -10 -29 1 -5 8 -7 21 -3 29 3 10 1 13 -6 8 -7 -4
-12 -16 -12 -27 0 -28 -27 -23 -61 10 -23 24 -29 38 -29 73 0 60 9 86 31 93
11 4 17 10 14 15 -8 14 50 40 87 40 44 0 95 -32 114 -72 13 -29 13 -38 1 -72
-15 -45 -40 -62 -34 -24 2 12 2 17 0 11 -7 -21 -22 -15 -29 12 -8 33 -78 95
-107 94 -18 -1 -16 -2 8 -10 38 -10 81 -55 90 -91 6 -24 4 -26 -17 -22 -20 4
-21 3 -3 -4 24 -11 29 -65 10 -102 -20 -39 -67 -78 -73 -61 -11 31 -42 51 -79
50 -34 -2 -35 -2 -8 -6 33 -5 65 -29 65 -50 0 -25 -67 -15 -101 15 -27 24 -32
36 -32 73 0 37 -1 40 -9 20 -5 -15 -5 -35 1 -52 5 -15 8 -29 6 -31 -8 -8 80
-58 102 -58 13 0 23 -6 23 -12 0 -9 3 -10 8 -2 4 6 21 18 39 27 43 23 69 59
83 117 7 28 16 50 21 50 14 0 11 -14 -17 -101 -34 -100 -85 -162 -152 -184
l-47 -15 49 5 c76 8 109 40 169 164 l51 106 5 -50 6 -50 21 35 c19 31 21 43
14 106 -9 72 -29 134 -52 158 -34 33 -111 50 -163 35z m171 -196 c-14 -14 -23
4 -13 27 l10 25 5 -23 c2 -13 1 -26 -2 -29z m-20 -45 c-11 -15 -16 -18 -16 -7
0 16 21 42 28 34 2 -2 -3 -14 -12 -27z"/>
<path d="M4102 3804 c-37 -24 -52 -40 -48 -51 3 -8 -3 -36 -15 -61 -32 -73
-50 -182 -38 -228 17 -60 35 -75 88 -73 25 1 58 -1 72 -5 18 -5 31 -3 40 7 7
8 21 12 31 9 16 -4 98 72 98 92 0 5 -18 -11 -39 -35 -21 -24 -42 -41 -46 -37
-4 4 0 34 9 66 22 81 22 82 -24 82 -32 0 -48 -7 -78 -34 -32 -30 -37 -40 -37
-80 0 -43 -1 -44 -19 -28 -50 46 -57 107 -26 217 28 99 57 159 88 178 16 10
21 17 12 17 -8 0 -39 -16 -68 -36z m131 -283 c-23 -58 -68 -109 -83 -94 -27
26 36 133 79 133 19 0 19 -2 4 -39z m-144 -95 c16 -10 14 -26 -3 -26 -24 0
-46 30 -46 63 l0 32 19 -31 c11 -18 24 -35 30 -38z m124 17 c-9 -22 -28 -43
-41 -43 -6 0 2 14 16 30 31 35 34 36 25 13z"/>
<path d="M4015 3713 c-24 -35 -36 -69 -17 -47 16 17 54 84 48 84 -3 0 -17 -17
-31 -37z"/>
<path d="M4348 3540 c-10 -17 -15 -36 -12 -44 3 -7 -4 -36 -16 -65 -20 -51
-29 -175 -11 -156 9 10 51 145 51 163 0 6 5 23 12 39 15 37 18 93 4 93 -6 0
-19 -14 -28 -30z m-27 -190 l-9 -45 -1 37 c-1 20 2 44 6 54 11 29 14 2 4 -46z"/>
<path d="M4413 3553 c-13 -8 -23 -20 -23 -26 0 -5 9 -2 20 8 23 21 50 14 50
-13 0 -25 -35 -69 -61 -77 -11 -4 -18 -12 -16 -18 6 -20 53 -25 84 -10 29 13
110 109 101 118 -2 3 -18 -15 -35 -39 -37 -53 -76 -81 -100 -72 -14 6 -11 12
19 36 20 16 39 41 42 56 13 49 -34 70 -81 37z"/>
<path d="M3637 3523 c-13 -12 -7 -41 9 -47 25 -10 29 -7 9 8 -11 8 -16 19 -12
30 7 17 5 20 -6 9z"/>
<path d="M2564 3438 c-9 -14 24 -38 50 -37 17 1 18 2 4 6 -10 2 -18 13 -18 24
0 21 -24 26 -36 7z"/>
<path d="M4470 2616 c0 -12 10 -16 36 -16 45 0 42 24 -4 28 -24 2 -32 -1 -32
-12z"/>
<path d="M4353 2613 c-14 -5 -18 -33 -5 -33 24 1 52 14 52 26 0 14 -23 17 -47
7z"/>
<path d="M4600 2605 c0 -8 6 -15 13 -15 6 0 22 -3 35 -6 16 -5 22 -2 22 9 0 8
-10 17 -22 21 -36 9 -48 7 -48 -9z"/>
<path d="M4233 2580 c-13 -5 -23 -16 -23 -24 0 -12 5 -13 30 -5 17 6 30 17 30
25 0 16 -6 16 -37 4z"/>
<path d="M4730 2567 c0 -16 47 -40 61 -32 16 10 10 21 -16 33 -34 16 -45 15
-45 -1z"/>
<path d="M4107 2524 c-15 -8 -25 -19 -22 -24 9 -14 28 -12 51 4 29 22 6 38
-29 20z"/>
<path d="M4850 2497 c0 -16 47 -43 57 -34 8 9 -27 47 -44 47 -7 0 -13 -6 -13
-13z"/>
<path d="M3987 2450 c-13 -13 -15 -20 -7 -25 17 -10 59 15 53 31 -7 19 -24 17
-46 -6z"/>
<path d="M4950 2407 c0 -20 37 -50 50 -42 8 5 4 15 -11 31 -25 27 -39 31 -39
11z"/>
<path d="M3883 2371 c-18 -15 -20 -21 -9 -30 10 -8 18 -5 34 12 12 13 19 27
15 30 -10 10 -16 8 -40 -12z"/>
<path d="M5035 2310 c-4 -6 1 -22 10 -37 22 -33 41 -17 24 20 -13 29 -24 34
-34 17z"/>
<path d="M3781 2280 c-20 -17 -21 -21 -7 -26 19 -7 46 12 46 32 0 19 -10 17
-39 -6z"/>
<path d="M3691 2189 c-18 -15 -21 -23 -13 -31 9 -9 17 -6 33 11 28 29 11 46
-20 20z"/>
<path d="M5097 2194 c-9 -10 15 -54 30 -54 16 0 17 14 3 41 -11 19 -22 24 -33
13z"/>
<path d="M1565 2168 c-2 -7 -16 -58 -31 -113 -37 -138 -36 -135 -42 -135 -3 0
-56 27 -118 60 -62 33 -115 60 -117 60 -7 0 -41 -90 -36 -95 3 -2 56 -18 118
-35 63 -17 120 -34 127 -38 10 -6 -1 -38 -46 -135 -33 -71 -60 -130 -60 -132
0 -2 15 -8 33 -13 17 -6 39 -13 48 -16 14 -6 20 9 37 86 12 51 24 109 27 129
12 65 13 65 143 0 67 -34 125 -61 129 -61 9 0 48 89 42 94 -2 1 -66 17 -141
35 -76 18 -138 35 -138 37 0 8 52 108 91 176 22 36 39 69 39 71 0 6 -76 37
-91 37 -5 0 -12 -6 -14 -12z"/>
<path d="M3596 2085 c-19 -29 -20 -35 -5 -35 14 0 49 43 42 52 -8 14 -20 8
-37 -17z"/>
<path d="M5153 2073 c-16 -6 -5 -33 13 -33 8 0 14 6 14 14 0 18 -11 25 -27 19z"/>
<path d="M3511 1982 c-15 -22 -18 -31 -9 -34 18 -6 53 41 41 53 -7 7 -18 1
-32 -19z"/>
<path d="M3426 1879 c-12 -15 -15 -24 -7 -32 7 -7 16 -3 30 14 31 38 9 55 -23
18z"/>
<path d="M3345 1774 c-23 -36 -5 -52 22 -20 18 20 19 27 9 35 -10 9 -18 5 -31
-15z"/>
<path d="M1561 1761 c-11 -7 -11 -14 1 -37 14 -31 31 -35 36 -10 5 23 -21 56
-37 47z"/>
<path d="M3256 1666 c-11 -17 -12 -27 -5 -32 14 -9 53 31 45 45 -11 17 -22 13
-40 -13z"/>
<path d="M1626 1642 c-8 -14 23 -64 35 -56 13 8 11 19 -9 45 -13 15 -21 18
-26 11z"/>
<path d="M3176 1569 c-20 -29 -20 -39 -1 -39 19 0 40 39 27 52 -6 6 -15 2 -26
-13z"/>
<path d="M1706 1531 c-9 -15 21 -64 34 -56 14 9 12 20 -8 46 -13 16 -21 19
-26 10z"/>
<path d="M3076 1461 c-12 -13 -14 -21 -6 -26 11 -7 50 21 50 37 0 15 -27 8
-44 -11z"/>
<path d="M1785 1421 c-3 -6 5 -19 17 -30 29 -28 50 -10 23 19 -20 22 -31 25
-40 11z"/>
<path d="M2988 1379 c-18 -10 -25 -39 -10 -39 16 0 52 32 47 41 -8 11 -15 11
-37 -2z"/>
<path d="M1884 1329 c-8 -14 31 -53 45 -45 16 10 13 19 -14 39 -16 12 -26 14
-31 6z"/>
<path d="M2876 1289 c-12 -12 -16 -23 -10 -29 12 -12 59 24 50 39 -10 15 -18
13 -40 -10z"/>
<path d="M1986 1245 c-6 -16 40 -49 54 -40 16 10 11 19 -19 37 -24 13 -31 14
-35 3z"/>
<path d="M2773 1223 c-13 -9 -23 -22 -23 -29 0 -12 5 -12 30 1 29 15 38 29 23
38 -5 3 -18 -2 -30 -10z"/>
<path d="M2100 1177 c0 -8 11 -19 25 -25 33 -15 35 -15 35 3 0 9 -12 20 -26
25 -33 13 -34 13 -34 -3z"/>
<path d="M2648 1168 c-28 -10 -35 -22 -19 -32 15 -10 61 12 61 29 0 17 -4 17
-42 3z"/>
<path d="M1953 1115 c0 -22 2 -30 4 -17 2 12 2 30 0 40 -3 9 -5 -1 -4 -23z"/>
<path d="M2230 1126 c0 -7 12 -16 28 -19 32 -6 37 -3 29 18 -8 19 -57 20 -57
1z"/>
<path d="M2513 1133 c-24 -5 -30 -18 -13 -28 15 -9 60 6 60 21 0 14 -6 15 -47
7z"/>
<path d="M2360 1105 c0 -10 11 -15 35 -15 24 0 35 5 35 15 0 10 -11 15 -35 15
-24 0 -35 -5 -35 -15z"/>
<path d="M1911 1000 c-2 -58 -11 -76 -46 -93 -25 -12 -35 -13 -44 -4 -9 9 -11
8 -6 -4 3 -9 -1 -33 -9 -53 -15 -35 -16 -36 -73 -37 -44 -1 -52 -3 -33 -9 14
-4 41 -8 60 -9 32 -1 38 -5 49 -36 7 -19 9 -40 5 -47 -5 -7 -2 -9 9 -5 8 3 29
1 46 -6 26 -10 31 -18 36 -57 10 -76 11 -77 19 -14 7 55 10 61 38 72 23 8 36
8 52 0 21 -11 21 -10 3 10 -12 13 -15 22 -8 27 6 3 11 14 11 23 0 13 -2 13
-15 -4 -15 -19 -15 -19 -30 1 -15 19 -14 20 27 27 24 3 64 7 91 7 26 1 47 6
47 11 0 6 -22 10 -50 10 -45 0 -51 3 -66 31 -8 17 -13 40 -10 52 3 14 2 17 -6
9 -7 -7 -20 -6 -42 3 -27 12 -32 20 -42 72 -10 48 -12 52 -13 23z m-15 -116
c-3 -9 -6 -23 -6 -32 0 -14 -4 -13 -21 5 -24 24 -18 43 13 43 14 0 18 -5 14
-16z m74 6 c13 -8 12 -13 -7 -32 -19 -18 -23 -19 -23 -6 0 9 -3 23 -6 32 -7
18 12 21 36 6z m-100 -62 c0 -4 -13 -8 -30 -8 -33 0 -35 2 -19 31 10 20 11 20
30 3 10 -9 19 -21 19 -26z m143 12 c4 -17 0 -20 -25 -20 -20 0 -27 4 -22 13
24 41 37 43 47 7z m-78 -60 l-19 -21 -20 20 c-19 20 -19 21 -1 41 l19 21 20
-20 c19 -20 19 -21 1 -41z m-77 -22 c-18 -27 -29 -27 -40 1 -6 18 -4 21 24 21
29 0 30 -1 16 -22z m41 -45 c1 -15 -18 -17 -39 -3 -12 7 -11 12 5 30 18 20 20
20 26 3 4 -10 8 -24 8 -30z m65 0 c-24 -18 -37 -16 -30 3 3 9 6 23 6 31 0 14
3 13 21 -3 19 -17 19 -19 3 -31z"/>
<path d="M1904 809 c-11 -18 11 -32 25 -16 9 12 8 16 -3 20 -9 4 -18 1 -22 -4z"/>
<path d="M4665 859 c-4 -5 -19 -9 -34 -9 -16 0 -34 -7 -41 -15 -7 -8 -18 -15
-25 -15 -15 0 -95 -76 -95 -90 0 -5 -8 -18 -19 -29 -35 -35 -10 -156 53 -253
35 -53 36 -54 163 -103 107 -40 103 -40 103 -20 0 20 10 19 25 -2 11 -14 16
-15 43 -4 17 7 40 10 51 6 22 -7 30 10 9 19 -9 4 -8 5 2 5 38 -3 51 3 75 35
35 46 65 131 65 184 0 53 -19 132 -32 132 -5 0 -16 16 -24 35 -8 19 -19 35
-25 35 -6 0 -20 11 -31 25 -11 14 -25 25 -33 25 -7 0 -18 6 -24 14 -19 22
-195 44 -206 25z"/>
<path d="M2288 843 c7 -3 16 -2 19 1 4 3 -2 6 -13 5 -11 0 -14 -3 -6 -6z"/>
<path d="M1587 817 c-3 -8 -1 -20 4 -28 6 -10 9 -7 9 14 0 29 -5 35 -13 14z"/>
<path d="M1611 814 c0 -11 3 -14 6 -6 3 7 2 16 -1 19 -3 4 -6 -2 -5 -13z"/>
<path d="M2254 813 c4 -9 1 -20 -6 -25 -10 -7 -9 -9 2 -5 18 4 27 47 10 47 -7
0 -9 -7 -6 -17z"/>
<path d="M1930 507 c0 -1 -4 -18 -10 -36 -5 -19 -6 -30 -1 -25 10 11 24 64 16
64 -3 0 -5 -1 -5 -3z"/>
<path d="M444 221 c3 -5 0 -12 -6 -14 -7 -3 12 -7 42 -8 47 -2 49 -3 17 -6
-32 -4 -38 -8 -34 -23 3 -13 -2 -20 -17 -24 -32 -9 -39 -7 -33 8 8 20 -24 29
-57 16 -37 -14 -46 -12 -17 4 16 9 20 16 12 20 -6 4 -9 12 -6 17 8 12 -16 11
-35 -1 -20 -13 -16 -89 7 -111 10 -10 45 -25 78 -34 64 -16 220 -21 211 -6 -4
5 0 12 6 14 7 3 -7 6 -32 6 -43 1 -46 2 -44 29 1 15 3 39 3 55 1 20 6 27 22
27 33 0 80 -32 74 -50 -5 -12 -3 -12 11 2 14 14 15 23 8 50 l-10 33 -103 3
c-63 2 -100 -1 -97 -7z"/>
<path d="M753 160 c4 -17 2 -20 -16 -16 -12 3 -16 3 -9 0 6 -3 12 -12 12 -20
0 -8 6 -14 13 -14 6 -1 1 -7 -13 -16 l-25 -15 25 7 c64 16 92 62 51 84 -31 16
-44 12 -38 -10z"/>
<path d="M5834 150 c-5 -5 -50 -13 -99 -16 -50 -4 -101 -11 -114 -16 -23 -8
-23 -9 -5 -23 17 -13 15 -14 -31 -15 -27 -1 -44 -4 -37 -7 6 -2 9 -10 6 -15
-11 -17 193 -3 242 17 44 18 75 58 58 75 -7 7 -13 7 -20 0z"/>
<path d="M5350 132 c0 -10 47 -46 73 -55 9 -3 17 -2 17 4 0 6 -9 13 -20 16
-11 3 -20 9 -20 14 0 5 -7 9 -15 9 -8 0 -15 5 -15 10 0 6 -4 10 -10 10 -5 0
-10 -4 -10 -8z"/>
<path d="M5929 108 c-6 -22 -5 -39 3 -45 7 -4 8 -1 4 6 -5 8 -3 11 6 9 7 -2
14 1 15 6 1 5 7 13 15 17 9 6 9 9 1 9 -6 0 -15 -4 -18 -10 -3 -5 -11 -10 -16
-10 -6 0 -7 5 -4 10 3 6 4 10 1 10 -3 0 -6 -1 -7 -2z"/>
</g>
</svg>
